<?xml version="1.0" standalone="no"?>
<!DOCTYPE svg PUBLIC "-//W3C//DTD SVG 20010904//EN"
 "http://www.w3.org/TR/2001/REC-SVG-20010904/DTD/svg10.dtd">
<svg version="1.0" xmlns="http://www.w3.org/2000/svg"
 width="1024.000000pt" height="1024.000000pt" viewBox="0 -180 1024.000000 1024.000000"
 preserveAspectRatio="xMidYMid meet">

<g transform="translate(-180.000000,1024.000000) scale(0.130000,-0.130000)"
fill="#569CD6" stroke="none">
<path d="M4005 8911 c-448 -85 -754 -381 -865 -838 -10 -40 -12 -42 -58 -48
-213 -28 -457 -128 -611 -251 -195 -157 -333 -391 -392 -664 -19 -89 -23 -136
-23 -305 -1 -208 13 -312 62 -455 l18 -52 -91 -92 c-99 -99 -161 -186 -231
-323 -200 -393 -202 -950 -3 -1340 63 -124 125 -210 227 -313 l83 -84 -25 -91
c-39 -139 -50 -226 -50 -400 0 -279 66 -501 214 -720 177 -262 465 -440 784
-487 l84 -12 7 -50 c37 -288 192 -572 405 -746 84 -69 261 -161 355 -184 119
-30 238 -39 334 -27 335 43 596 247 713 557 22 58 23 68 26 610 l3 552 -25 19
c-16 13 -49 23 -89 27 -64 6 -163 30 -332 80 -58 17 -100 24 -119 20 -19 -4
-76 -51 -165 -138 -137 -133 -185 -166 -238 -166 -52 0 -129 49 -275 174 -354
305 -512 489 -493 575 7 35 53 109 107 173 23 28 36 52 32 59 -4 7 -3 9 3 6
11 -7 104 85 123 121 20 41 14 76 -33 178 -25 55 -64 153 -86 217 -22 64 -45
126 -51 137 -20 36 -52 49 -150 55 -136 9 -285 32 -317 49 -44 22 -71 57 -82
106 -15 63 -14 753 0 805 6 22 28 56 48 76 44 44 82 54 303 72 105 9 164 18
180 29 18 12 33 45 61 138 21 68 59 169 84 224 77 173 77 167 -19 278 -171
198 -198 239 -198 298 0 34 8 59 31 96 40 62 372 392 502 499 122 101 167 125
227 125 62 0 105 -29 257 -173 74 -70 133 -118 150 -121 19 -5 76 7 168 34 77
22 189 49 249 60 64 12 117 27 128 37 18 16 18 43 16 627 l-3 611 -30 60 c-16
33 -35 59 -42 58 -7 -2 -10 3 -7 11 7 19 -83 97 -163 139 -139 73 -244 96
-458 102 -129 4 -179 1 -260 -14z m512 -27 c-3 -3 -12 -4 -19 -1 -8 3 -5 6 6
6 11 1 17 -2 13 -5z m-1020 -2556 c-3 -8 -6 -5 -6 6 -1 11 2 17 5 13 3 -3 4
-12 1 -19z m-33 -2074 c3 -8 2 -12 -4 -9 -6 3 -10 10 -10 16 0 14 7 11 14 -7z"/>
<path d="M5780 8911 c-262 -56 -447 -200 -495 -387 -14 -54 -15 -400 -13
-3255 l3 -3194 27 -80 c106 -310 370 -524 700 -566 418 -54 845 229 1033 684
34 83 85 262 85 298 0 13 18 19 86 28 509 71 901 482 983 1028 26 172 6 431
-45 595 l-25 78 71 67 c330 310 467 812 364 1323 -49 242 -192 515 -361 687
l-75 78 12 45 c42 151 51 190 61 268 16 121 6 383 -20 492 -116 502 -477 846
-968 921 l-79 12 -19 71 c-77 299 -300 577 -575 716 -89 45 -189 78 -289 95
-118 21 -352 19 -461 -4z m540 -1457 c111 -33 216 -125 287 -252 81 -146 132
-297 278 -832 160 -587 417 -1490 440 -1546 51 -122 120 -174 230 -174 58 0
77 6 207 64 34 15 38 15 54 -1 14 -15 16 -31 11 -108 -10 -150 -48 -235 -135
-302 -61 -46 -139 -68 -242 -67 -252 2 -418 142 -504 425 -14 48 -46 169 -70
270 -53 218 -189 765 -206 829 l-12 45 -30 -65 c-16 -36 -149 -361 -294 -723
-145 -362 -275 -680 -289 -707 l-26 -50 -232 2 -232 3 -3 27 c-2 20 116 263
437 900 242 480 455 914 474 963 19 50 40 121 47 159 36 193 -54 508 -183 639
-100 102 -180 114 -316 46 -62 -31 -86 -38 -95 -29 -7 7 -12 66 -14 162 -4
170 6 213 58 263 68 65 243 94 360 59z"/>
<path d="M4785 6509 c-331 -111 -588 -375 -714 -732 -110 -311 -114 -741 -11
-1057 52 -160 132 -302 245 -433 133 -156 332 -289 519 -346 84 -26 108 -26
129 -3 16 17 17 121 17 1295 0 1411 5 1307 -63 1307 -18 0 -72 -14 -122 -31z
m-394 -2286 c13 -16 12 -17 -3 -4 -17 13 -22 21 -14 21 2 0 10 -8 17 -17z"/>
</g>
</svg>
